<?xml version="1.0" encoding="utf-8"?>
<!-- Generator: Adobe Illustrator 22.0.1, SVG Export Plug-In . SVG Version: 6.00 Build 0)  -->
<svg version="1.1" id="Calque_1" xmlns="http://www.w3.org/2000/svg" xmlns:xlink="http://www.w3.org/1999/xlink" x="0px" y="0px"
	 viewBox="0 0 447.4 124.9" style="enable-background:new 0 0 447.4 124.9;" xml:space="preserve">
<style type="text/css">
	.st0{fill:#E16C4C;}
	.st1{fill:#479AAD;}
	.st2{fill:#A2C768;}
</style>
<g>
	<path class="st0" d="M5.7,34.1c-1.6,0-2.9-0.6-4-1.7C0.6,31.3,0,30,0,28.4c0-1.6,0.6-2.9,1.7-4c1.1-1.1,2.5-1.7,4-1.7
		c1.6,0,2.9,0.6,4,1.7c1.1,1.1,1.7,2.5,1.7,4c0,1.6-0.6,2.9-1.7,4C8.6,33.6,7.3,34.1,5.7,34.1z M5.7,95.7c-1.6,0-2.9-0.6-4-1.7
		S0,91.5,0,89.9V45.1c0-1.6,0.6-2.9,1.7-4c1.1-1.1,2.5-1.7,4-1.7c1.6,0,2.9,0.6,4,1.7c1.1,1.1,1.7,2.5,1.7,4v44.8
		c0,1.6-0.6,2.9-1.7,4S7.3,95.7,5.7,95.7z"/>
	<path class="st0" d="M75.5,68c-0.1,7.6-2.8,14.1-8.2,19.5c-5.5,5.5-12,8.2-19.8,8.2s-14.3-2.7-19.8-8.2c-5.5-5.5-8.2-12-8.2-19.8
		s2.7-14.3,8.2-19.8c5.5-5.5,12-8.2,19.8-8.2c6.2,0,11.7,1.8,16.5,5.4V28.6c0-1.6,0.6-2.9,1.7-4c1.1-1.1,2.5-1.7,4-1.7
		c1.6,0,2.9,0.6,4,1.7c1.1,1.1,1.7,2.5,1.7,4V68z M64.2,68.9c0-0.3-0.1-0.7-0.1-1v-2.1c-0.4-3.7-2-7-4.8-9.8
		c-3.3-3.3-7.2-4.9-11.8-4.9c-4.6,0-8.5,1.6-11.7,4.9c-3.2,3.3-4.8,7.2-4.8,11.8s1.6,8.5,4.8,11.7c3.2,3.2,7.1,4.8,11.7,4.8
		c4.6,0,8.5-1.6,11.8-4.9C62.3,76.5,63.9,73,64.2,68.9z"/>
	<path class="st0" d="M118.8,52.5c-2.1-0.9-4.3-1.4-6.8-1.4c-4.6,0-8.5,1.6-11.8,4.8c-3.3,3.2-4.9,7.1-4.9,11.7
		c0,4.6,1.6,8.5,4.9,11.8c3.3,3.3,7.2,4.9,11.8,4.9c4.6,0,8.5-1.6,11.7-4.8c0,0,0.1-0.1,0.1-0.1c1.1-1.1,2.4-1.6,4-1.6
		c1.6,0,2.9,0.6,4,1.7c1.1,1.1,1.7,2.4,1.7,4c0,1.6-0.6,2.9-1.7,4c0,0-0.1,0.1-0.1,0.1c-5.4,5.4-12,8.1-19.7,8.1s-14.3-2.7-19.8-8.2
		c-5.5-5.5-8.2-12-8.2-19.8s2.7-14.3,8.2-19.8c5.5-5.5,12-8.2,19.8-8.2s14.3,2.7,19.7,8.1l-0.1,0.1c0,0,0,0.1,0.1,0.1
		c1.1,1.1,1.6,2.4,1.6,4c0,1.5-0.5,2.8-1.6,3.9L102.6,85c-1.1,1.1-2.5,1.6-4,1.6c-1.6,0-3-0.5-4.1-1.6c-1.1-1.1-1.6-2.5-1.6-4.1
		c0-1.6,0.5-2.9,1.6-4L118.8,52.5z"/>
	<path class="st0" d="M194.3,90.2c0,2.2-0.6,3.6-1.7,4.4c-1.1,0.7-2.5,1.1-4,1.1c-1.6,0-2.9-0.4-4-1.1c-1.1-0.7-1.7-2.2-1.7-4.3
		c-4.8,3.6-10.3,5.4-16.5,5.4c-7.7,0-14.3-2.7-19.8-8.2c-5.5-5.5-8.2-12-8.2-19.8s2.7-14.3,8.2-19.8c5.5-5.5,12-8.2,19.8-8.2
		c7.7,0,14.3,2.7,19.8,8.2c5.4,5.4,8.1,11.9,8.2,19.5V90.2z M178.1,55.9c-3.3-3.3-7.2-4.9-11.8-4.9s-8.5,1.6-11.7,4.8
		c-3.2,3.2-4.8,7.1-4.8,11.7c0,4.6,1.6,8.5,4.8,11.8c3.2,3.3,7.1,4.9,11.7,4.9s8.5-1.6,11.8-4.9c2.8-2.8,4.4-6,4.8-9.8v-2.1
		c0-0.3,0-0.7,0.1-1C182.7,62.4,181,58.9,178.1,55.9z"/>
	<path class="st1" d="M209.2,39.5V28.9c0-1.6,0.6-2.9,1.7-4c1.1-1.1,2.5-1.7,4-1.7c1.6,0,2.9,0.6,4,1.7c1.1,1.1,1.7,2.5,1.7,4v10.6
		h6.2c1.6,0,2.9,0.6,4,1.7c1.1,1.1,1.7,2.5,1.7,4c0,1.6-0.6,2.9-1.7,4c-1.1,1.1-2.5,1.7-4,1.7h-6.2v39c0,1.6-0.6,2.9-1.7,4
		c-1.1,1.1-2.5,1.7-4,1.7c-1.6,0-2.9-0.6-4-1.7c-1.1-1.1-1.7-2.5-1.7-4v-39h-6.4c-1.6,0-2.9-0.6-4-1.7c-1.1-1.1-1.7-2.5-1.7-4
		c0-1.6,0.6-2.9,1.7-4c1.1-1.1,2.5-1.7,4-1.7H209.2z"/>
	<path class="st1" d="M248.5,34.1c-1.6,0-2.9-0.6-4-1.7c-1.1-1.1-1.7-2.5-1.7-4c0-1.6,0.6-2.9,1.7-4c1.1-1.1,2.5-1.7,4-1.7
		c1.6,0,2.9,0.6,4,1.7c1.1,1.1,1.7,2.5,1.7,4c0,1.6-0.6,2.9-1.7,4C251.4,33.6,250,34.1,248.5,34.1z M248.5,95.7
		c-1.6,0-2.9-0.6-4-1.7c-1.1-1.1-1.7-2.5-1.7-4V45.1c0-1.6,0.6-2.9,1.7-4c1.1-1.1,2.5-1.7,4-1.7c1.6,0,2.9,0.6,4,1.7
		c1.1,1.1,1.7,2.5,1.7,4v44.8c0,1.6-0.6,2.9-1.7,4C251.4,95.1,250,95.7,248.5,95.7z"/>
	<path class="st1" d="M310.1,47.9c5.5,5.5,8.2,12,8.2,19.8s-2.7,14.3-8.2,19.8c-5.5,5.5-12,8.2-19.8,8.2c-7.7,0-14.3-2.7-19.8-8.2
		c-5.5-5.5-8.2-12-8.2-19.8s2.7-14.3,8.2-19.8c5.5-5.5,12-8.2,19.8-8.2C298.1,39.7,304.6,42.5,310.1,47.9z M290.3,51.1
		c-4.6,0-8.5,1.6-11.8,4.8c-3.3,3.2-4.9,7.1-4.9,11.7c0,4.6,1.6,8.5,4.9,11.8c3.3,3.3,7.2,4.9,11.8,4.9s8.5-1.6,11.7-4.9
		c3.2-3.3,4.8-7.2,4.8-11.8c0-4.6-1.6-8.5-4.8-11.7C298.8,52.7,294.9,51.1,290.3,51.1z"/>
	<path class="st1" d="M355.4,39.6c7.9,0.4,14.4,3.2,19.4,8.3c5.4,5.4,8.1,11.9,8.2,19.5v21.6c0,2.2-0.6,3.8-1.7,4.9
		c-1.1,1.1-2.5,1.7-4,1.7c-1.6,0-2.9-0.6-4-1.7c-1.1-1.1-1.7-2.7-1.7-4.8V67.5c0-0.3,0-0.7,0.1-1c-0.2-4.1-1.8-7.6-4.8-10.6
		c-3.3-3.3-7.2-4.9-11.8-4.9h-0.2c-4.6,0-8.5,1.6-11.8,4.9c-3,3-4.6,6.5-4.8,10.6c0,0.3,0.1,0.7,0.1,1v21.6c0,2.1-0.6,3.7-1.7,4.8
		c-1.1,1.1-2.5,1.7-4,1.7c-1.6,0-2.9-0.6-4-1.7s-1.7-2.8-1.7-4.9V67.4c0.1-7.6,2.8-14.1,8.2-19.5c5.1-5.1,11.6-7.8,19.4-8.3H355.4z"
		/>
	<path class="st1" d="M326.8,67.8V46.2c0-2.2,0.6-3.8,1.7-4.9c1.1-1.1,2.5-1.7,4-1.7c1.6,0,2.9,0.6,4,1.7c1.1,1.1,1.7,2.7,1.7,4.8
		v21.6c0,0.3,0,0.7-0.1,1"/>
	<path class="st2" d="M416.3,39.8c1-0.1,2-0.2,3-0.2c7.7,0,14.3,2.7,19.8,8.2c5.5,5.5,8.2,12.1,8.2,19.8c0,7.7-2.7,14.3-8.2,19.8
		c-5.5,5.5-12.1,8.2-19.8,8.2c-7.8,0-14.4-2.7-19.8-8.2c-5.5-5.5-8.2-12.1-8.2-19.8c0-5,1.1-9.5,3.3-13.4l19.6-33.6
		c0.3-0.6,0.7-1.2,1.2-1.7c1.1-1.1,2.4-1.6,3.9-1.6c1.6,0,2.9,0.6,4,1.7c1.1,1.1,1.6,2.4,1.6,4c0,1-0.2,2-0.7,2.8L416.3,39.8z
		 M419.4,50.8c-4.7,0-8.6,1.6-11.9,4.9c-3.3,3.3-4.9,7.2-4.9,11.9c0,4.6,1.6,8.6,4.9,11.9c3.3,3.3,7.2,4.9,11.9,4.9
		c4.6,0,8.6-1.6,11.9-4.9c3.3-3.3,4.9-7.2,4.9-11.9c0-4.7-1.6-8.6-4.9-11.9C427.9,52.5,424,50.8,419.4,50.8z"/>
</g>
</svg>
